<svg id="Capa_1" enable-background="new 0 0 512 512" height="512" viewBox="0 0 512 512" width="512" xmlns="http://www.w3.org/2000/svg"><g><path d="m159.186 0c-36.26 0-65.761 29.5-65.761 65.761v416.932l89.393 8.185 20.672-203.974-20.672-286.904z" fill="#6ae1db"/><g><path d="m182.818 0v490.878l162.294 14.861 33.88-260.366-33.88-245.373z" fill="#21c8c7"/><path d="m345.112 0v505.739l68.378 6.261h87.013v-512z" fill="#17a0a9"/></g><g><path d="m268.924 84.956v29.972h76.188l13.75-14.986-13.75-14.986z" fill="#6ae1db"/><path d="m345.112 84.956h78.188v29.972h-78.188z" fill="#21c8c7"/><path d="m268.924 174.876h76.188l13.75-14.986-13.75-14.986h-76.188z" fill="#6ae1db"/></g><g><g><path d="m413.49 400.84-25.071-14.239h-296.258c-29.413 0-53.258 23.844-53.258 53.258 0 .512.024 1.019.039 1.527l214.751 25.865 118.374-25.865c.024-22.362 18.597-40.546 41.423-40.546z" fill="#f7fcff"/><path d="m372.065 441.43c0-.015.001-.03.001-.044h-333.124c.811 28.705 24.318 51.73 53.219 51.73h303.855l17.475-11.139c-22.843 0-41.426-18.165-41.426-40.547z" fill="#ecf3fb"/></g><g><path d="m82.111 400.84h331.379v-30.068h-331.379c-38.937 0-70.614 31.677-70.614 70.614l17.609 7.384 12.459-7.384c0-22.358 18.189-40.546 40.546-40.546z" fill="#fd465f"/><path d="m41.565 441.386h-30.068c0 38.937 31.677 70.614 70.614 70.614h331.379v-30.023l-331.379-.044c-22.357-.001-40.546-18.19-40.546-40.547z" fill="#ce0c51"/><path d="m375.148 426.086h-292.87v15.3l198.923 6.098 90.866-6.098c.005-5.412 1.105-10.576 3.081-15.3z" fill="#ecf3fb"/><path d="m374.898 456.154c-1.822-4.568-2.833-9.531-2.833-14.723 0-.015.001-.03.001-.044h-289.788v14.768h292.62z" fill="#e0e6f5"/></g></g><path d="m345.112 144.904h78.188v29.972h-78.188z" fill="#21c8c7"/></g></svg>